<?xml version="1.0" standalone="no"?>
<!DOCTYPE svg PUBLIC "-//W3C//DTD SVG 20010904//EN"
 "http://www.w3.org/TR/2001/REC-SVG-20010904/DTD/svg10.dtd">
<svg version="1.0" xmlns="http://www.w3.org/2000/svg"
 width="5000.000000pt" height="5000.000000pt" viewBox="0 0 5000.000000 5000.000000"
 preserveAspectRatio="xMidYMid meet">

<g transform="translate(0.000000,5000.000000) scale(0.100000,-0.100000)"
fill="#000000" stroke="none">
<path d="M34380 32437 l0 -483 -127 -23 c-272 -49 -587 -134 -822 -221 -46
-17 -87 -27 -91 -23 -4 4 -83 139 -175 298 -333 578 -306 535 -329 523 -19
-10 -171 -97 -616 -353 -69 -40 -217 -125 -330 -190 -113 -64 -211 -123 -219
-130 -14 -13 70 -165 406 -738 34 -60 63 -110 63 -111 0 -2 -48 -43 -107 -92
-133 -109 -452 -426 -558 -554 -43 -52 -82 -99 -85 -103 -4 -5 -146 71 -316
169 -481 276 -535 306 -540 301 -3 -3 -25 -38 -48 -79 -73 -127 -226 -391
-435 -750 -110 -191 -201 -351 -201 -356 0 -5 60 -43 133 -84 72 -42 215 -124
317 -183 102 -59 229 -132 283 -163 53 -30 97 -58 97 -63 0 -5 -298 -9 -678
-9 l-678 0 -151 -230 -152 -230 -741 0 -740 0 -152 -230 -151 -230 -861 0
-861 -1 -155 -236 c-85 -130 -163 -249 -173 -264 l-19 -29 3244 0 3245 0 6
151 c34 786 413 1568 1031 2131 681 621 1600 959 2506 924 663 -26 1267 -222
1820 -591 190 -127 328 -242 516 -429 220 -220 372 -413 523 -658 l41 -68
-339 0 -338 0 -84 103 c-409 503 -989 863 -1619 1006 -258 58 -338 66 -655 65
-265 0 -304 -3 -450 -27 -230 -38 -410 -86 -610 -164 -798 -310 -1428 -967
-1709 -1783 -36 -106 -65 -217 -58 -224 3 -3 262 -6 577 -6 l571 0 56 113
c365 730 1178 1128 1978 967 563 -113 1038 -481 1286 -997 l39 -83 1494 0
1494 0 -7 58 c-25 216 -163 732 -250 934 -16 36 -15 38 6 52 13 7 115 67 228
131 113 65 273 157 355 205 83 48 169 97 193 110 23 13 42 27 42 31 0 3 -39
73 -86 155 -47 82 -138 239 -202 349 -64 110 -145 252 -182 315 -36 63 -99
172 -140 243 -40 70 -76 127 -81 127 -6 0 -95 -51 -612 -348 -126 -73 -229
-132 -231 -132 -1 0 -43 48 -92 108 -116 141 -399 423 -546 547 -65 54 -118
100 -118 101 0 2 109 191 241 420 202 347 239 418 228 429 -8 7 -135 82 -284
167 -344 198 -586 337 -700 403 -49 28 -115 66 -146 83 l-56 32 -243 -421
c-186 -321 -247 -419 -259 -415 -9 3 -101 34 -206 70 -206 69 -490 143 -679
176 -65 11 -123 20 -127 20 -5 0 -9 216 -9 485 l0 485 -695 0 -695 0 0 -483z"/>
<path d="M6560 25060 l0 -1850 500 0 500 0 0 604 0 605 713 4 c611 3 726 6
812 21 575 97 765 317 815 940 13 162 13 358 0 551 -18 266 -48 401 -121 554
-131 270 -364 380 -874 411 -98 5 -630 10 -1257 10 l-1088 0 0 -1850z m2107
1029 c204 -28 243 -94 244 -409 1 -302 -30 -362 -206 -395 -62 -12 -183 -15
-611 -15 l-534 0 0 415 0 415 514 0 c313 0 545 -4 593 -11z"/>
<path d="M10290 25060 l0 -1850 495 0 495 0 0 651 0 651 528 -4 c461 -4 535
-7 587 -22 116 -33 165 -90 185 -212 6 -33 10 -285 10 -561 l0 -503 525 0 525
0 0 433 c0 595 -11 702 -85 852 -45 92 -100 153 -190 214 -114 76 -214 110
-430 147 -38 6 -36 7 61 29 268 61 431 178 529 378 80 164 107 316 106 590 0
310 -31 496 -108 655 -122 256 -367 365 -882 392 -102 5 -673 10 -1268 10
l-1083 0 0 -1850z m2100 1030 c136 -17 201 -62 231 -159 16 -53 23 -344 11
-425 -6 -39 -22 -90 -35 -115 -30 -60 -101 -97 -207 -111 -41 -5 -308 -10
-592 -10 l-518 0 0 415 0 415 513 0 c291 0 549 -4 597 -10z"/>
<path d="M15067 26903 c-3 -5 -276 -831 -607 -1838 -332 -1006 -605 -1836
-607 -1842 -4 -10 106 -13 530 -13 l535 0 11 33 c5 17 49 158 96 312 47 154
93 301 101 328 l16 47 711 0 712 0 100 -360 100 -360 568 0 c474 0 568 2 564
14 -3 7 -267 829 -586 1827 -319 998 -585 1824 -591 1837 l-10 22 -819 0
c-451 0 -822 -3 -824 -7z m842 -895 c16 -51 113 -352 215 -669 102 -318 189
-584 192 -593 6 -15 -36 -16 -455 -16 -254 0 -461 3 -461 7 0 7 424 1296 441
1339 17 46 36 27 68 -68z"/>
<path d="M18117 26903 c-4 -3 -7 -836 -7 -1850 l0 -1843 500 0 500 0 0 389 0
389 271 304 c149 166 277 309 284 316 10 11 86 -115 416 -692 l403 -706 549 0
c301 0 546 3 544 8 -3 4 -275 468 -606 1031 l-601 1024 17 26 c9 14 257 376
550 804 294 428 537 785 540 793 4 12 -70 14 -567 12 l-572 -3 -612 -898 -611
-897 -3 900 -2 900 -493 0 c-272 0 -497 -3 -500 -7z"/>
<path d="M21847 26904 c-4 -4 -7 -837 -7 -1851 l0 -1843 500 0 500 0 0 650 0
650 468 0 c610 0 694 -10 766 -90 68 -76 69 -83 74 -677 l4 -533 519 0 520 0
-3 538 c-4 515 -5 540 -26 615 -74 268 -269 423 -606 482 -49 8 -91 16 -92 18
-2 2 35 11 82 21 390 81 587 314 635 753 25 226 -6 619 -60 776 -81 234 -235
368 -499 432 -231 57 -234 57 -1552 62 -668 3 -1219 1 -1223 -3z m2101 -814
c122 -16 186 -54 219 -130 19 -45 36 -271 28 -380 -16 -212 -67 -274 -248
-299 -48 -7 -280 -11 -593 -11 l-514 0 0 415 0 415 518 0 c284 0 550 -5 590
-10z"/>
<path d="M25620 25060 l0 -1850 495 0 495 0 0 1850 0 1850 -495 0 -495 0 0
-1850z"/>
<path d="M26870 26480 l0 -430 570 0 570 0 0 -1420 0 -1420 495 0 495 0 0
1420 0 1420 570 0 570 0 0 430 0 430 -1635 0 -1635 0 0 -430z"/>
<path d="M30407 26903 c-4 -3 -7 -836 -7 -1850 l0 -1843 500 0 500 0 0 1850 0
1850 -493 0 c-272 0 -497 -3 -500 -7z"/>
<path d="M21824 22420 c-248 -24 -364 -87 -408 -223 -26 -78 -32 -247 -12
-326 43 -169 160 -235 562 -321 274 -59 345 -91 359 -165 10 -52 -7 -88 -50
-110 -35 -17 -60 -20 -215 -20 -246 0 -282 17 -296 136 l-7 59 -198 0 -199 0
0 -62 c1 -133 48 -270 115 -325 50 -43 145 -81 245 -100 134 -24 554 -24 689
1 233 42 309 126 319 353 13 310 -111 409 -653 523 -155 33 -233 60 -258 88
-22 26 -29 69 -17 113 17 63 50 73 245 73 226 1 257 -17 271 -153 l7 -61 200
0 200 0 -6 98 c-15 255 -104 361 -347 408 -91 18 -420 26 -546 14z"/>
<path d="M24900 22419 c-420 -40 -540 -204 -540 -734 0 -317 42 -485 147 -590
89 -89 208 -128 446 -147 165 -13 411 0 526 27 209 50 316 171 356 401 33 192
29 504 -11 673 -43 189 -151 297 -344 345 -132 32 -390 43 -580 25z m408 -321
c26 -6 58 -24 76 -43 53 -53 61 -99 61 -370 0 -270 -8 -317 -60 -370 -48 -48
-106 -60 -280 -59 -84 0 -168 6 -192 13 -53 15 -100 53 -118 99 -45 106 -45
527 -1 633 15 36 46 69 85 89 56 29 325 34 429 8z"/>
<path d="M33434 22420 c-248 -24 -364 -87 -408 -223 -26 -78 -32 -247 -12
-326 43 -169 160 -235 562 -321 274 -59 345 -91 359 -165 10 -52 -7 -88 -50
-110 -35 -17 -60 -20 -215 -20 -246 0 -282 17 -296 136 l-7 59 -198 0 -199 0
0 -62 c1 -133 48 -270 115 -325 50 -43 145 -81 245 -100 134 -24 554 -24 689
1 233 42 309 126 319 353 13 310 -111 409 -653 523 -155 33 -233 60 -258 88
-22 26 -29 69 -17 113 17 63 50 73 245 73 226 1 257 -17 271 -153 l7 -61 200
0 200 0 -6 98 c-15 255 -104 361 -347 408 -91 18 -420 26 -546 14z"/>
<path d="M39584 22420 c-248 -24 -364 -87 -408 -223 -26 -78 -32 -247 -12
-326 43 -169 160 -235 562 -321 274 -59 345 -91 359 -165 10 -52 -7 -88 -50
-110 -35 -17 -60 -20 -215 -20 -246 0 -282 17 -296 136 l-7 59 -198 0 -199 0
0 -62 c1 -133 48 -270 115 -325 50 -43 145 -81 245 -100 134 -24 554 -24 689
1 233 42 309 126 319 353 13 310 -111 409 -653 523 -155 33 -233 60 -258 88
-22 26 -29 69 -17 113 17 63 50 73 245 73 226 1 257 -17 271 -153 l7 -61 200
0 200 0 -6 98 c-15 255 -104 361 -347 408 -91 18 -420 26 -546 14z"/>
<path d="M22870 21685 l0 -725 195 0 195 0 0 285 0 285 280 0 280 0 0 -285 0
-285 195 0 195 0 0 725 0 725 -195 0 -195 0 0 -275 0 -275 -280 0 -280 0 0
275 0 275 -195 0 -195 0 0 -725z"/>
<path d="M25920 22245 l0 -165 223 -2 222 -3 3 -557 2 -558 190 0 190 0 0 560
0 560 225 0 225 0 0 165 0 165 -640 0 -640 0 0 -165z"/>
<path d="M27860 21685 l0 -725 195 0 195 0 0 725 0 725 -195 0 -195 0 0 -725z"/>
<path d="M28430 21685 l0 -725 195 0 195 0 0 395 c0 217 4 395 8 395 5 0 152
-177 328 -394 l319 -395 183 0 182 -1 0 725 0 725 -190 0 -190 0 0 -396 c0
-312 -3 -395 -12 -392 -7 2 -155 179 -329 394 l-315 389 -187 3 -187 2 0 -725z"/>
<path d="M30020 21685 l0 -725 408 0 c455 0 590 9 700 46 165 55 235 143 280
354 12 57 16 134 16 325 0 191 -4 268 -16 325 -45 211 -115 299 -279 354 -111
37 -251 46 -701 46 l-408 0 0 -725z m903 368 c39 -18 51 -30 69 -70 46 -105
46 -491 0 -597 -18 -39 -30 -51 -69 -69 -44 -19 -68 -22 -280 -25 l-233 -4 0
397 0 397 233 -4 c212 -3 236 -6 280 -25z"/>
<path d="M31562 21863 c4 -485 6 -555 21 -608 51 -174 134 -250 322 -291 110
-24 464 -24 578 -1 150 31 231 84 285 184 61 115 64 153 69 736 l5 527 -196 0
-195 0 -3 -522 c-3 -504 -4 -524 -23 -558 -35 -60 -80 -75 -230 -74 -161 0
-196 13 -229 83 -20 45 -21 61 -24 559 l-3 512 -190 0 -190 0 3 -547z"/>
<path d="M34400 22245 l0 -165 223 -2 222 -3 3 -557 2 -558 190 0 190 0 0 560
0 560 225 0 225 0 0 165 0 165 -640 0 -640 0 0 -165z"/>
<path d="M35780 21685 l0 -725 195 0 195 0 0 255 0 255 214 0 c118 0 226 -4
240 -10 55 -21 61 -45 64 -282 l4 -218 199 0 199 0 0 208 c0 245 -9 291 -69
351 -39 39 -130 81 -176 81 -39 0 -29 17 13 23 20 4 62 21 92 39 107 64 147
179 138 390 -12 240 -85 321 -316 348 -48 5 -291 10 -539 10 l-453 0 0 -725z
m877 392 c40 -21 48 -48 47 -154 -1 -90 -16 -127 -60 -143 -14 -6 -126 -10
-250 -10 l-224 0 0 166 0 166 228 -4 c191 -3 232 -7 259 -21z"/>
<path d="M37250 21685 l0 -725 195 0 195 0 0 725 0 725 -195 0 -195 0 0 -725z"/>
<path d="M37820 21685 l0 -725 595 0 595 0 0 165 0 165 -400 0 -400 0 0 125 0
125 365 0 365 0 0 155 0 155 -365 0 -365 0 0 115 0 115 400 0 400 0 0 165 0
165 -595 0 -595 0 0 -725z"/>
<path d="M14536 22093 c-30 -496 -121 -843 -327 -1254 -155 -311 -334 -554
-609 -830 -696 -696 -1682 -1076 -2650 -1020 -521 30 -945 143 -1404 373 -340
170 -633 386 -918 675 -192 195 -338 382 -486 626 l-42 67 339 0 339 0 73 -92
c230 -290 564 -568 892 -742 721 -384 1552 -454 2327 -196 699 233 1299 745
1644 1402 108 205 223 501 243 620 l6 38 -577 0 -576 0 -32 -67 c-126 -269
-355 -542 -598 -715 -187 -133 -454 -247 -705 -300 -97 -20 -138 -23 -345 -23
-207 0 -248 3 -345 23 -200 42 -435 131 -588 224 -300 182 -579 492 -713 793
l-29 64 -1492 1 -1493 0 0 -29 c0 -38 44 -267 76 -399 34 -138 85 -311 130
-437 50 -137 58 -164 53 -169 -2 -2 -79 -47 -171 -99 -92 -53 -258 -149 -370
-214 -112 -64 -222 -127 -245 -141 -24 -13 -43 -27 -43 -31 0 -8 42 -81 435
-761 65 -113 147 -254 181 -314 35 -60 65 -111 68 -113 3 -3 101 50 218 117
117 68 302 174 412 237 109 63 204 117 210 119 7 3 52 -44 101 -103 149 -179
516 -536 646 -627 19 -13 22 -20 13 -34 -144 -238 -474 -826 -468 -832 5 -5
79 -49 164 -98 153 -88 372 -213 758 -436 108 -62 213 -123 233 -135 l35 -21
36 63 c416 719 451 777 459 777 4 0 45 -14 91 -31 146 -54 259 -89 438 -135
180 -47 404 -94 445 -94 58 0 55 31 55 -496 l0 -484 695 0 695 0 0 485 0 484
38 6 c204 34 438 87 622 141 94 27 118 36 268 90 59 21 107 33 112 28 9 -10
134 -224 345 -589 76 -132 138 -241 139 -242 1 -1 150 84 571 326 127 73 321
185 432 249 l202 116 -18 30 c-11 17 -110 189 -221 381 -112 193 -213 369
-226 391 l-24 41 107 91 c204 170 475 445 619 626 l31 40 159 -91 c87 -50 278
-159 423 -243 200 -115 266 -148 273 -138 11 17 162 276 387 665 286 495 291
503 291 512 0 5 -80 55 -177 112 -422 244 -483 278 -565 325 -49 27 -88 52
-88 57 0 4 305 7 678 7 l677 0 150 230 150 229 741 1 742 0 151 230 151 230
860 0 859 0 167 253 c92 138 172 258 177 265 8 9 -641 12 -3236 12 l-3245 0
-6 -97z"/>
</g>
</svg>
